<mxfile host="app.diagrams.net" agent="Mozilla/5.0 (Macintosh; Intel Mac OS X 10_15_7) AppleWebKit/537.36 (KHTML, like Gecko) Chrome/136.0.0.0 Safari/537.36" version="27.1.1" pages="3">
  <diagram name="Page-1" id="KQnWwvrIvbvE-6QA81Qe">
    <mxGraphModel dx="970" dy="703" grid="1" gridSize="10" guides="1" tooltips="1" connect="1" arrows="1" fold="1" page="1" pageScale="1" pageWidth="827" pageHeight="1169" math="0" shadow="0">
      <root>
        <mxCell id="0" />
        <mxCell id="1" parent="0" />
        <mxCell id="UjIAdFd5cK4wWvxuOUz1-1" value="&lt;b&gt;Proxy&lt;/b&gt;" style="rounded=1;whiteSpace=wrap;html=1;" vertex="1" parent="1">
          <mxGeometry x="40" y="140" width="120" height="40" as="geometry" />
        </mxCell>
        <mxCell id="UjIAdFd5cK4wWvxuOUz1-2" value="&lt;b&gt;Config&lt;/b&gt;&lt;div&gt;Supervision, product, Target Server, spike arrest, KVM, IPs&lt;/div&gt;" style="rounded=1;whiteSpace=wrap;html=1;" vertex="1" parent="1">
          <mxGeometry x="200" y="100" width="120" height="80" as="geometry" />
        </mxCell>
        <mxCell id="UjIAdFd5cK4wWvxuOUz1-3" value="&lt;b&gt;Documentation&lt;/b&gt;" style="rounded=1;whiteSpace=wrap;html=1;" vertex="1" parent="1">
          <mxGeometry x="360" y="140" width="120" height="40" as="geometry" />
        </mxCell>
        <mxCell id="UjIAdFd5cK4wWvxuOUz1-4" value="CI/CD" style="rounded=0;whiteSpace=wrap;html=1;" vertex="1" parent="1">
          <mxGeometry x="40" y="20" width="440" height="20" as="geometry" />
        </mxCell>
        <mxCell id="UjIAdFd5cK4wWvxuOUz1-5" value="Linter Documentation" style="rounded=0;whiteSpace=wrap;html=1;" vertex="1" parent="1">
          <mxGeometry x="360" y="50" width="120" height="20" as="geometry" />
        </mxCell>
        <mxCell id="UjIAdFd5cK4wWvxuOUz1-6" value="Linter Proxy" style="rounded=0;whiteSpace=wrap;html=1;" vertex="1" parent="1">
          <mxGeometry x="40" y="50" width="120" height="20" as="geometry" />
        </mxCell>
        <mxCell id="UjIAdFd5cK4wWvxuOUz1-7" value="Linter SÃ©cu" style="rounded=0;whiteSpace=wrap;html=1;" vertex="1" parent="1">
          <mxGeometry x="40" y="80" width="120" height="20" as="geometry" />
        </mxCell>
        <mxCell id="UjIAdFd5cK4wWvxuOUz1-8" value="Linter Change" style="rounded=0;whiteSpace=wrap;html=1;" vertex="1" parent="1">
          <mxGeometry x="40" y="110" width="120" height="20" as="geometry" />
        </mxCell>
        <mxCell id="UjIAdFd5cK4wWvxuOUz1-49" style="edgeStyle=orthogonalEdgeStyle;rounded=0;orthogonalLoop=1;jettySize=auto;html=1;entryX=1;entryY=0.5;entryDx=0;entryDy=0;" edge="1" parent="1" source="UjIAdFd5cK4wWvxuOUz1-10" target="UjIAdFd5cK4wWvxuOUz1-48">
          <mxGeometry relative="1" as="geometry">
            <Array as="points">
              <mxPoint x="378" y="560" />
            </Array>
          </mxGeometry>
        </mxCell>
        <mxCell id="UjIAdFd5cK4wWvxuOUz1-50" style="edgeStyle=orthogonalEdgeStyle;rounded=0;orthogonalLoop=1;jettySize=auto;html=1;entryX=1;entryY=0.5;entryDx=0;entryDy=0;" edge="1" parent="1" source="UjIAdFd5cK4wWvxuOUz1-10" target="UjIAdFd5cK4wWvxuOUz1-47">
          <mxGeometry relative="1" as="geometry">
            <Array as="points">
              <mxPoint x="378" y="620" />
            </Array>
          </mxGeometry>
        </mxCell>
        <mxCell id="UjIAdFd5cK4wWvxuOUz1-55" style="edgeStyle=orthogonalEdgeStyle;rounded=0;orthogonalLoop=1;jettySize=auto;html=1;entryX=1;entryY=0.5;entryDx=0;entryDy=0;" edge="1" parent="1" source="UjIAdFd5cK4wWvxuOUz1-10" target="UjIAdFd5cK4wWvxuOUz1-54">
          <mxGeometry relative="1" as="geometry">
            <Array as="points">
              <mxPoint x="378" y="500" />
            </Array>
          </mxGeometry>
        </mxCell>
        <mxCell id="UjIAdFd5cK4wWvxuOUz1-10" value="&lt;b&gt;Proxy&lt;/b&gt;&lt;br&gt;&lt;font style=&quot;font-size: 10px;&quot;&gt;./APIM_v1/...&lt;/font&gt;" style="rounded=1;whiteSpace=wrap;html=1;" vertex="1" parent="1">
          <mxGeometry x="238" y="660" width="160" height="40" as="geometry" />
        </mxCell>
        <mxCell id="UjIAdFd5cK4wWvxuOUz1-37" style="edgeStyle=orthogonalEdgeStyle;rounded=0;orthogonalLoop=1;jettySize=auto;html=1;" edge="1" parent="1" source="UjIAdFd5cK4wWvxuOUz1-11" target="UjIAdFd5cK4wWvxuOUz1-22">
          <mxGeometry relative="1" as="geometry" />
        </mxCell>
        <mxCell id="UjIAdFd5cK4wWvxuOUz1-11" value="&lt;b&gt;IP Whitelist&lt;br&gt;&lt;/b&gt;&lt;font style=&quot;font-size: 10px;&quot;&gt;./IP_APIM_v1/...&lt;/font&gt;&lt;b&gt;&lt;/b&gt;" style="rounded=1;whiteSpace=wrap;html=1;" vertex="1" parent="1">
          <mxGeometry x="238" y="720" width="160" height="40" as="geometry" />
        </mxCell>
        <mxCell id="UjIAdFd5cK4wWvxuOUz1-12" value="&lt;b&gt;KVM&lt;br&gt;&lt;/b&gt;&lt;font style=&quot;font-size: 10px;&quot;&gt;./KVM/APIM_v1.json&lt;/font&gt;" style="rounded=1;whiteSpace=wrap;html=1;" vertex="1" parent="1">
          <mxGeometry x="238" y="780" width="160" height="40" as="geometry" />
        </mxCell>
        <mxCell id="UjIAdFd5cK4wWvxuOUz1-13" value="&lt;b&gt;Spike Arrest&lt;br&gt;&lt;/b&gt;&lt;font style=&quot;font-size: 10px;&quot;&gt;./APIM_v1/conf.txt&lt;/font&gt;" style="rounded=1;whiteSpace=wrap;html=1;dashed=1;fillColor=#f5f5f5;fontColor=#333333;strokeColor=#666666;" vertex="1" parent="1">
          <mxGeometry x="238" y="840" width="160" height="40" as="geometry" />
        </mxCell>
        <mxCell id="UjIAdFd5cK4wWvxuOUz1-16" style="edgeStyle=orthogonalEdgeStyle;rounded=0;orthogonalLoop=1;jettySize=auto;html=1;entryX=0.5;entryY=0;entryDx=0;entryDy=0;" edge="1" parent="1" source="UjIAdFd5cK4wWvxuOUz1-14" target="UjIAdFd5cK4wWvxuOUz1-15">
          <mxGeometry relative="1" as="geometry" />
        </mxCell>
        <mxCell id="UjIAdFd5cK4wWvxuOUz1-14" value="&lt;b&gt;Linter Pentests&lt;/b&gt;" style="rounded=1;whiteSpace=wrap;html=1;dashed=1;fillColor=#f5f5f5;fontColor=#333333;strokeColor=#666666;" vertex="1" parent="1">
          <mxGeometry x="78" y="660" width="120" height="40" as="geometry" />
        </mxCell>
        <mxCell id="UjIAdFd5cK4wWvxuOUz1-17" style="edgeStyle=orthogonalEdgeStyle;rounded=0;orthogonalLoop=1;jettySize=auto;html=1;entryX=0;entryY=0.5;entryDx=0;entryDy=0;" edge="1" parent="1" source="UjIAdFd5cK4wWvxuOUz1-15" target="UjIAdFd5cK4wWvxuOUz1-10">
          <mxGeometry relative="1" as="geometry">
            <Array as="points">
              <mxPoint x="218" y="740" />
              <mxPoint x="218" y="680" />
            </Array>
          </mxGeometry>
        </mxCell>
        <mxCell id="UjIAdFd5cK4wWvxuOUz1-18" style="edgeStyle=orthogonalEdgeStyle;rounded=0;orthogonalLoop=1;jettySize=auto;html=1;entryX=0;entryY=0.5;entryDx=0;entryDy=0;" edge="1" parent="1" source="UjIAdFd5cK4wWvxuOUz1-15" target="UjIAdFd5cK4wWvxuOUz1-11">
          <mxGeometry relative="1" as="geometry" />
        </mxCell>
        <mxCell id="UjIAdFd5cK4wWvxuOUz1-19" style="edgeStyle=orthogonalEdgeStyle;rounded=0;orthogonalLoop=1;jettySize=auto;html=1;entryX=0;entryY=0.5;entryDx=0;entryDy=0;" edge="1" parent="1" source="UjIAdFd5cK4wWvxuOUz1-15" target="UjIAdFd5cK4wWvxuOUz1-12">
          <mxGeometry relative="1" as="geometry" />
        </mxCell>
        <mxCell id="UjIAdFd5cK4wWvxuOUz1-20" style="edgeStyle=orthogonalEdgeStyle;rounded=0;orthogonalLoop=1;jettySize=auto;html=1;entryX=0;entryY=0.5;entryDx=0;entryDy=0;" edge="1" parent="1" source="UjIAdFd5cK4wWvxuOUz1-15" target="UjIAdFd5cK4wWvxuOUz1-13">
          <mxGeometry relative="1" as="geometry" />
        </mxCell>
        <mxCell id="UjIAdFd5cK4wWvxuOUz1-15" value="&lt;b&gt;Linter Change&lt;/b&gt;" style="rounded=1;whiteSpace=wrap;html=1;dashed=1;fillColor=#f5f5f5;fontColor=#333333;strokeColor=#666666;" vertex="1" parent="1">
          <mxGeometry x="78" y="720" width="120" height="40" as="geometry" />
        </mxCell>
        <mxCell id="UjIAdFd5cK4wWvxuOUz1-21" value="&lt;h1 style=&quot;margin-top: 0px;&quot;&gt;Architecture&lt;/h1&gt;&lt;p&gt;- RBAC_Payment/&lt;br&gt;&lt;span style=&quot;white-space: pre;&quot;&gt;&#x9;&lt;/span&gt;- Payment_API_1/&lt;br&gt;&lt;span style=&quot;white-space: pre;&quot;&gt;&#x9;&lt;/span&gt;- IP_Payment_API_1/&lt;br&gt;&lt;span style=&quot;white-space: pre;&quot;&gt;&#x9;&lt;/span&gt;- KVM/&lt;br&gt;&lt;span style=&quot;white-space: pre;&quot;&gt;&#x9;&lt;/span&gt;&lt;span style=&quot;white-space: pre;&quot;&gt;&#x9;&lt;/span&gt;- Payment_API_1.json&lt;br&gt;&lt;span style=&quot;white-space: pre;&quot;&gt;&#x9;&lt;/span&gt;- Documentation/&lt;br&gt;&lt;span style=&quot;white-space: pre;&quot;&gt;&#x9;&lt;/span&gt;&lt;span style=&quot;white-space: pre;&quot;&gt;&#x9;&lt;/span&gt;- Wallet_v1.0.0/&lt;br&gt;&lt;span style=&quot;white-space: pre;&quot;&gt;&#x9;&lt;/span&gt;&lt;span style=&quot;white-space: pre;&quot;&gt;&#x9;&lt;/span&gt;&lt;span style=&quot;white-space: pre;&quot;&gt;&#x9;&lt;/span&gt;- pages/&lt;br&gt;&lt;span style=&quot;white-space: pre;&quot;&gt;&#x9;&lt;/span&gt;&lt;span style=&quot;white-space: pre;&quot;&gt;&#x9;&lt;/span&gt;&lt;span style=&quot;white-space: pre;&quot;&gt;&#x9;&lt;/span&gt;- data.json&lt;br&gt;&lt;span style=&quot;white-space: pre;&quot;&gt;&#x9;&lt;/span&gt;&lt;span style=&quot;white-space: pre;&quot;&gt;&#x9;&lt;/span&gt;&lt;span style=&quot;white-space: pre;&quot;&gt;&#x9;&lt;/span&gt;- swagger.yml&lt;br&gt;&lt;/p&gt;" style="text;html=1;whiteSpace=wrap;overflow=hidden;rounded=0;" vertex="1" parent="1">
          <mxGeometry x="40" y="240" width="310" height="220" as="geometry" />
        </mxCell>
        <mxCell id="UjIAdFd5cK4wWvxuOUz1-22" value="&lt;b&gt;Apigee&amp;nbsp;&lt;/b&gt;" style="rounded=1;whiteSpace=wrap;html=1;fillColor=#f8cecc;strokeColor=#b85450;" vertex="1" parent="1">
          <mxGeometry x="678" y="720" width="120" height="40" as="geometry" />
        </mxCell>
        <mxCell id="UjIAdFd5cK4wWvxuOUz1-23" value="&lt;b&gt;Portail&lt;/b&gt;" style="rounded=1;whiteSpace=wrap;html=1;fillColor=#dae8fc;strokeColor=#6c8ebf;" vertex="1" parent="1">
          <mxGeometry x="678" y="900" width="120" height="40" as="geometry" />
        </mxCell>
        <mxCell id="UjIAdFd5cK4wWvxuOUz1-24" value="&lt;b&gt;Documentation&lt;br&gt;&lt;/b&gt;&lt;font style=&quot;font-size: 10px;&quot;&gt;./Documentation/apim_doc_v1.0.0&lt;/font&gt;" style="rounded=1;whiteSpace=wrap;html=1;" vertex="1" parent="1">
          <mxGeometry x="238" y="900" width="160" height="40" as="geometry" />
        </mxCell>
        <mxCell id="UjIAdFd5cK4wWvxuOUz1-31" value="&lt;b&gt;Linter Apigee&lt;/b&gt;" style="rounded=1;whiteSpace=wrap;html=1;" vertex="1" parent="1">
          <mxGeometry x="458" y="680" width="120" height="40" as="geometry" />
        </mxCell>
        <mxCell id="UjIAdFd5cK4wWvxuOUz1-32" value="&lt;b&gt;Linter Accor&lt;/b&gt;" style="rounded=1;whiteSpace=wrap;html=1;" vertex="1" parent="1">
          <mxGeometry x="458" y="640" width="120" height="40" as="geometry" />
        </mxCell>
        <mxCell id="UjIAdFd5cK4wWvxuOUz1-38" style="edgeStyle=orthogonalEdgeStyle;rounded=0;orthogonalLoop=1;jettySize=auto;html=1;entryX=0.33;entryY=1.07;entryDx=0;entryDy=0;entryPerimeter=0;" edge="1" parent="1" source="UjIAdFd5cK4wWvxuOUz1-12" target="UjIAdFd5cK4wWvxuOUz1-22">
          <mxGeometry relative="1" as="geometry" />
        </mxCell>
        <mxCell id="UjIAdFd5cK4wWvxuOUz1-39" style="edgeStyle=orthogonalEdgeStyle;rounded=0;orthogonalLoop=1;jettySize=auto;html=1;entryX=0.67;entryY=1.01;entryDx=0;entryDy=0;entryPerimeter=0;" edge="1" parent="1" source="UjIAdFd5cK4wWvxuOUz1-13" target="UjIAdFd5cK4wWvxuOUz1-22">
          <mxGeometry relative="1" as="geometry" />
        </mxCell>
        <mxCell id="UjIAdFd5cK4wWvxuOUz1-41" value="&lt;b&gt;Linter Swagger&lt;/b&gt;&lt;br&gt;openAPI + Accor" style="rounded=1;whiteSpace=wrap;html=1;" vertex="1" parent="1">
          <mxGeometry x="458" y="880" width="120" height="40" as="geometry" />
        </mxCell>
        <mxCell id="UjIAdFd5cK4wWvxuOUz1-42" value="&lt;b&gt;Changelog GenAI&lt;/b&gt;" style="rounded=1;whiteSpace=wrap;html=1;dashed=1;fillColor=#f5f5f5;fontColor=#333333;strokeColor=#666666;" vertex="1" parent="1">
          <mxGeometry x="458" y="920" width="120" height="40" as="geometry" />
        </mxCell>
        <mxCell id="UjIAdFd5cK4wWvxuOUz1-47" value="&lt;b&gt;Product&lt;/b&gt;" style="rounded=1;whiteSpace=wrap;html=1;" vertex="1" parent="1">
          <mxGeometry x="158" y="600" width="160" height="40" as="geometry" />
        </mxCell>
        <mxCell id="UjIAdFd5cK4wWvxuOUz1-48" value="&lt;b&gt;Trace_Only&lt;/b&gt;" style="rounded=1;whiteSpace=wrap;html=1;dashed=1;fillColor=#f5f5f5;fontColor=#333333;strokeColor=#666666;" vertex="1" parent="1">
          <mxGeometry x="158" y="540" width="160" height="40" as="geometry" />
        </mxCell>
        <mxCell id="UjIAdFd5cK4wWvxuOUz1-53" style="edgeStyle=orthogonalEdgeStyle;rounded=0;orthogonalLoop=1;jettySize=auto;html=1;entryX=0.5;entryY=1;entryDx=0;entryDy=0;" edge="1" parent="1" source="UjIAdFd5cK4wWvxuOUz1-52" target="UjIAdFd5cK4wWvxuOUz1-23">
          <mxGeometry relative="1" as="geometry" />
        </mxCell>
        <mxCell id="UjIAdFd5cK4wWvxuOUz1-57" style="edgeStyle=orthogonalEdgeStyle;rounded=0;orthogonalLoop=1;jettySize=auto;html=1;entryX=0;entryY=0.5;entryDx=0;entryDy=0;" edge="1" parent="1" source="UjIAdFd5cK4wWvxuOUz1-52" target="UjIAdFd5cK4wWvxuOUz1-56">
          <mxGeometry relative="1" as="geometry">
            <Array as="points">
              <mxPoint x="318" y="1020" />
            </Array>
          </mxGeometry>
        </mxCell>
        <mxCell id="UjIAdFd5cK4wWvxuOUz1-52" value="&lt;b&gt;Supervision&lt;/b&gt;" style="rounded=1;whiteSpace=wrap;html=1;dashed=1;fillColor=#f5f5f5;fontColor=#333333;strokeColor=#666666;" vertex="1" parent="1">
          <mxGeometry x="238" y="960" width="160" height="40" as="geometry" />
        </mxCell>
        <mxCell id="UjIAdFd5cK4wWvxuOUz1-54" value="&lt;b&gt;Target Servers&lt;/b&gt;" style="rounded=1;whiteSpace=wrap;html=1;dashed=1;fillColor=#f5f5f5;fontColor=#333333;strokeColor=#666666;" vertex="1" parent="1">
          <mxGeometry x="158" y="480" width="160" height="40" as="geometry" />
        </mxCell>
        <mxCell id="UjIAdFd5cK4wWvxuOUz1-56" value="&lt;b&gt;Splunk&lt;/b&gt;" style="rounded=1;whiteSpace=wrap;html=1;fillColor=#d5e8d4;strokeColor=#82b366;" vertex="1" parent="1">
          <mxGeometry x="678" y="1000" width="120" height="40" as="geometry" />
        </mxCell>
        <mxCell id="UjIAdFd5cK4wWvxuOUz1-59" value="" style="endArrow=classic;html=1;rounded=0;exitX=1;exitY=0.5;exitDx=0;exitDy=0;entryX=0;entryY=0;entryDx=0;entryDy=0;" edge="1" parent="1" source="UjIAdFd5cK4wWvxuOUz1-10" target="UjIAdFd5cK4wWvxuOUz1-31">
          <mxGeometry width="50" height="50" relative="1" as="geometry">
            <mxPoint x="558" y="780" as="sourcePoint" />
            <mxPoint x="608" y="730" as="targetPoint" />
            <Array as="points" />
          </mxGeometry>
        </mxCell>
        <mxCell id="UjIAdFd5cK4wWvxuOUz1-60" value="" style="endArrow=classic;html=1;rounded=0;exitX=1;exitY=0;exitDx=0;exitDy=0;entryX=0.5;entryY=0;entryDx=0;entryDy=0;" edge="1" parent="1" source="UjIAdFd5cK4wWvxuOUz1-31" target="UjIAdFd5cK4wWvxuOUz1-22">
          <mxGeometry width="50" height="50" relative="1" as="geometry">
            <mxPoint x="558" y="780" as="sourcePoint" />
            <mxPoint x="608" y="730" as="targetPoint" />
            <Array as="points">
              <mxPoint x="738" y="680" />
            </Array>
          </mxGeometry>
        </mxCell>
        <mxCell id="UjIAdFd5cK4wWvxuOUz1-61" value="" style="endArrow=classic;html=1;rounded=0;exitX=1;exitY=0.5;exitDx=0;exitDy=0;entryX=0;entryY=1;entryDx=0;entryDy=0;" edge="1" parent="1" source="UjIAdFd5cK4wWvxuOUz1-24" target="UjIAdFd5cK4wWvxuOUz1-41">
          <mxGeometry width="50" height="50" relative="1" as="geometry">
            <mxPoint x="568" y="930" as="sourcePoint" />
            <mxPoint x="618" y="880" as="targetPoint" />
          </mxGeometry>
        </mxCell>
        <mxCell id="UjIAdFd5cK4wWvxuOUz1-62" value="" style="endArrow=classic;html=1;rounded=0;exitX=1;exitY=0;exitDx=0;exitDy=0;entryX=0;entryY=0.5;entryDx=0;entryDy=0;" edge="1" parent="1" source="UjIAdFd5cK4wWvxuOUz1-42" target="UjIAdFd5cK4wWvxuOUz1-23">
          <mxGeometry width="50" height="50" relative="1" as="geometry">
            <mxPoint x="568" y="930" as="sourcePoint" />
            <mxPoint x="618" y="880" as="targetPoint" />
          </mxGeometry>
        </mxCell>
        <mxCell id="UjIAdFd5cK4wWvxuOUz1-63" value="Packaging - Versioning - Archivage&amp;nbsp;" style="rounded=1;whiteSpace=wrap;html=1;rotation=-90;" vertex="1" parent="1">
          <mxGeometry x="-240" y="740" width="560" height="40" as="geometry" />
        </mxCell>
      </root>
    </mxGraphModel>
  </diagram>
  <diagram id="Gx-p0B2ctS2MeKDhgR98" name="Page-2">
    <mxGraphModel dx="1697" dy="1230" grid="1" gridSize="10" guides="1" tooltips="1" connect="1" arrows="1" fold="1" page="1" pageScale="1" pageWidth="827" pageHeight="1169" math="0" shadow="0">
      <root>
        <mxCell id="0" />
        <mxCell id="1" parent="0" />
        <mxCell id="FEQNbzJvbj0z5sj5O9IZ-10" value="Gitlab" style="swimlane;whiteSpace=wrap;html=1;container=0;fillColor=#ffe6cc;strokeColor=#d79b00;" vertex="1" parent="1">
          <mxGeometry x="40" y="40" width="440" height="700" as="geometry">
            <mxRectangle width="70" height="30" as="alternateBounds" />
          </mxGeometry>
        </mxCell>
        <mxCell id="FEQNbzJvbj0z5sj5O9IZ-86" value="" style="rounded=0;whiteSpace=wrap;html=1;fillColor=none;dashed=1;dashPattern=12 12;strokeColor=#00CC00;strokeWidth=2;" vertex="1" parent="FEQNbzJvbj0z5sj5O9IZ-10">
          <mxGeometry x="20" y="190" width="400" height="490" as="geometry" />
        </mxCell>
        <mxCell id="FEQNbzJvbj0z5sj5O9IZ-57" value="" style="rounded=0;whiteSpace=wrap;html=1;fillColor=none;dashed=1;dashPattern=12 12;strokeColor=#FF0000;strokeWidth=2;" vertex="1" parent="FEQNbzJvbj0z5sj5O9IZ-10">
          <mxGeometry x="20" y="30" width="400" height="130" as="geometry" />
        </mxCell>
        <mxCell id="FEQNbzJvbj0z5sj5O9IZ-47" value="&lt;span style=&quot;font-weight: 400;&quot;&gt;WCOFF Offers-API - Proxy 1&lt;/span&gt;" style="swimlane;whiteSpace=wrap;html=1;container=0;" vertex="1" parent="FEQNbzJvbj0z5sj5O9IZ-10">
          <mxGeometry x="40" y="200" width="360" height="100" as="geometry" />
        </mxCell>
        <mxCell id="FEQNbzJvbj0z5sj5O9IZ-48" value="Pipeline&lt;br&gt;Apigee" style="rounded=0;whiteSpace=wrap;html=1;" vertex="1" parent="FEQNbzJvbj0z5sj5O9IZ-47">
          <mxGeometry x="240" y="60" width="120" height="40" as="geometry" />
        </mxCell>
        <mxCell id="FEQNbzJvbj0z5sj5O9IZ-49" style="edgeStyle=orthogonalEdgeStyle;rounded=0;orthogonalLoop=1;jettySize=auto;html=1;entryX=0;entryY=0.5;entryDx=0;entryDy=0;" edge="1" parent="FEQNbzJvbj0z5sj5O9IZ-47" source="FEQNbzJvbj0z5sj5O9IZ-50" target="FEQNbzJvbj0z5sj5O9IZ-48">
          <mxGeometry relative="1" as="geometry" />
        </mxCell>
        <mxCell id="FEQNbzJvbj0z5sj5O9IZ-50" value="Offers-API&lt;br&gt;Proxy 1" style="rounded=1;whiteSpace=wrap;html=1;container=0;" vertex="1" parent="FEQNbzJvbj0z5sj5O9IZ-47">
          <mxGeometry x="39.11" y="40" width="120.89" height="40" as="geometry" />
        </mxCell>
        <mxCell id="FEQNbzJvbj0z5sj5O9IZ-58" value="&lt;span style=&quot;font-weight: 400;&quot;&gt;WCOFF Offers-API&lt;/span&gt;&lt;span style=&quot;font-weight: 400;&quot;&gt;&amp;nbsp;- Proxy 2&lt;/span&gt;" style="swimlane;whiteSpace=wrap;html=1;container=0;" vertex="1" parent="FEQNbzJvbj0z5sj5O9IZ-10">
          <mxGeometry x="40" y="320" width="360" height="100" as="geometry" />
        </mxCell>
        <mxCell id="FEQNbzJvbj0z5sj5O9IZ-59" value="Pipeline&lt;br&gt;Apigee" style="rounded=0;whiteSpace=wrap;html=1;" vertex="1" parent="FEQNbzJvbj0z5sj5O9IZ-58">
          <mxGeometry x="240" y="60" width="120" height="40" as="geometry" />
        </mxCell>
        <mxCell id="FEQNbzJvbj0z5sj5O9IZ-60" style="edgeStyle=orthogonalEdgeStyle;rounded=0;orthogonalLoop=1;jettySize=auto;html=1;entryX=0;entryY=0.5;entryDx=0;entryDy=0;" edge="1" parent="FEQNbzJvbj0z5sj5O9IZ-58" source="FEQNbzJvbj0z5sj5O9IZ-61" target="FEQNbzJvbj0z5sj5O9IZ-59">
          <mxGeometry relative="1" as="geometry" />
        </mxCell>
        <mxCell id="FEQNbzJvbj0z5sj5O9IZ-61" value="Offers-API&lt;br&gt;Proxy 2" style="rounded=1;whiteSpace=wrap;html=1;container=0;" vertex="1" parent="FEQNbzJvbj0z5sj5O9IZ-58">
          <mxGeometry x="39.11" y="40" width="120.89" height="40" as="geometry" />
        </mxCell>
        <mxCell id="FEQNbzJvbj0z5sj5O9IZ-62" value="&lt;span style=&quot;font-weight: 400;&quot;&gt;WCOFF Offers-API - Proxy 3&lt;/span&gt;" style="swimlane;whiteSpace=wrap;html=1;container=0;" vertex="1" parent="FEQNbzJvbj0z5sj5O9IZ-10">
          <mxGeometry x="40" y="440" width="360" height="100" as="geometry" />
        </mxCell>
        <mxCell id="FEQNbzJvbj0z5sj5O9IZ-63" value="Pipeline&lt;br&gt;Apigee" style="rounded=0;whiteSpace=wrap;html=1;" vertex="1" parent="FEQNbzJvbj0z5sj5O9IZ-62">
          <mxGeometry x="240" y="60" width="120" height="40" as="geometry" />
        </mxCell>
        <mxCell id="FEQNbzJvbj0z5sj5O9IZ-64" style="edgeStyle=orthogonalEdgeStyle;rounded=0;orthogonalLoop=1;jettySize=auto;html=1;entryX=0;entryY=0.5;entryDx=0;entryDy=0;" edge="1" parent="FEQNbzJvbj0z5sj5O9IZ-62" source="FEQNbzJvbj0z5sj5O9IZ-65" target="FEQNbzJvbj0z5sj5O9IZ-63">
          <mxGeometry relative="1" as="geometry" />
        </mxCell>
        <mxCell id="FEQNbzJvbj0z5sj5O9IZ-65" value="Offers-API&lt;br&gt;Proxy 3" style="rounded=1;whiteSpace=wrap;html=1;container=0;" vertex="1" parent="FEQNbzJvbj0z5sj5O9IZ-62">
          <mxGeometry x="39.11" y="40" width="120.89" height="40" as="geometry" />
        </mxCell>
        <mxCell id="FEQNbzJvbj0z5sj5O9IZ-78" value="&lt;span style=&quot;font-weight: 400;&quot;&gt;WCOFF Offers-API - Documentation&lt;/span&gt;" style="swimlane;whiteSpace=wrap;html=1;container=0;" vertex="1" parent="FEQNbzJvbj0z5sj5O9IZ-10">
          <mxGeometry x="40" y="560" width="360" height="100" as="geometry" />
        </mxCell>
        <mxCell id="FEQNbzJvbj0z5sj5O9IZ-79" value="Pipeline&lt;br&gt;Documentation" style="rounded=0;whiteSpace=wrap;html=1;" vertex="1" parent="FEQNbzJvbj0z5sj5O9IZ-78">
          <mxGeometry x="240" y="60" width="120" height="40" as="geometry" />
        </mxCell>
        <mxCell id="FEQNbzJvbj0z5sj5O9IZ-80" style="edgeStyle=orthogonalEdgeStyle;rounded=0;orthogonalLoop=1;jettySize=auto;html=1;entryX=0;entryY=0.5;entryDx=0;entryDy=0;" edge="1" parent="FEQNbzJvbj0z5sj5O9IZ-78" source="FEQNbzJvbj0z5sj5O9IZ-81" target="FEQNbzJvbj0z5sj5O9IZ-79">
          <mxGeometry relative="1" as="geometry" />
        </mxCell>
        <mxCell id="FEQNbzJvbj0z5sj5O9IZ-81" value="Offers-API&lt;br&gt;Documentation" style="rounded=1;whiteSpace=wrap;html=1;container=0;" vertex="1" parent="FEQNbzJvbj0z5sj5O9IZ-78">
          <mxGeometry x="39.11" y="40" width="120.89" height="40" as="geometry" />
        </mxCell>
        <mxCell id="FEQNbzJvbj0z5sj5O9IZ-7" value="AWS" style="swimlane;whiteSpace=wrap;html=1;fillColor=#f5f5f5;fontColor=#333333;strokeColor=#666666;" vertex="1" parent="1">
          <mxGeometry x="560" y="100" width="200" height="100" as="geometry">
            <mxRectangle x="560" y="120" width="70" height="30" as="alternateBounds" />
          </mxGeometry>
        </mxCell>
        <mxCell id="FEQNbzJvbj0z5sj5O9IZ-19" value="API Offers-API" style="rounded=1;whiteSpace=wrap;html=1;container=0;" vertex="1" parent="FEQNbzJvbj0z5sj5O9IZ-7">
          <mxGeometry x="39.55999999999995" y="40" width="120.89" height="40" as="geometry" />
        </mxCell>
        <mxCell id="FEQNbzJvbj0z5sj5O9IZ-36" style="edgeStyle=orthogonalEdgeStyle;rounded=0;orthogonalLoop=1;jettySize=auto;html=1;entryX=0;entryY=0.5;entryDx=0;entryDy=0;" edge="1" parent="1" source="FEQNbzJvbj0z5sj5O9IZ-26" target="FEQNbzJvbj0z5sj5O9IZ-19">
          <mxGeometry relative="1" as="geometry" />
        </mxCell>
        <mxCell id="FEQNbzJvbj0z5sj5O9IZ-3" value="&lt;span style=&quot;font-weight: 400;&quot;&gt;WCOFF Offers-API&lt;/span&gt;" style="swimlane;whiteSpace=wrap;html=1;container=0;startSize=23;" vertex="1" parent="1">
          <mxGeometry x="80" y="80" width="360" height="100" as="geometry" />
        </mxCell>
        <mxCell id="FEQNbzJvbj0z5sj5O9IZ-26" value="Pipeline&lt;br&gt;CI/CD" style="rounded=0;whiteSpace=wrap;html=1;" vertex="1" parent="FEQNbzJvbj0z5sj5O9IZ-3">
          <mxGeometry x="240" y="60" width="120" height="40" as="geometry" />
        </mxCell>
        <mxCell id="FEQNbzJvbj0z5sj5O9IZ-38" style="edgeStyle=orthogonalEdgeStyle;rounded=0;orthogonalLoop=1;jettySize=auto;html=1;entryX=0;entryY=0.5;entryDx=0;entryDy=0;" edge="1" parent="1" source="FEQNbzJvbj0z5sj5O9IZ-4" target="FEQNbzJvbj0z5sj5O9IZ-26">
          <mxGeometry relative="1" as="geometry" />
        </mxCell>
        <mxCell id="FEQNbzJvbj0z5sj5O9IZ-4" value="Code source&lt;br&gt;API Offers-API" style="rounded=1;whiteSpace=wrap;html=1;container=0;" vertex="1" parent="1">
          <mxGeometry x="119.11" y="120" width="120.89" height="40" as="geometry" />
        </mxCell>
        <mxCell id="FEQNbzJvbj0z5sj5O9IZ-55" value="Apigee" style="swimlane;whiteSpace=wrap;html=1;fillColor=#f8cecc;strokeColor=#b85450;" vertex="1" parent="1">
          <mxGeometry x="560" y="320" width="200" height="220" as="geometry" />
        </mxCell>
        <mxCell id="FEQNbzJvbj0z5sj5O9IZ-88" value="Offers-API&lt;br&gt;Proxy 1" style="rounded=1;whiteSpace=wrap;html=1;container=0;" vertex="1" parent="FEQNbzJvbj0z5sj5O9IZ-55">
          <mxGeometry x="39.559999999999945" y="40" width="120.89" height="40" as="geometry" />
        </mxCell>
        <mxCell id="FEQNbzJvbj0z5sj5O9IZ-89" value="Offers-API&lt;br&gt;&lt;div&gt;Proxy 2&lt;/div&gt;" style="rounded=1;whiteSpace=wrap;html=1;container=0;" vertex="1" parent="FEQNbzJvbj0z5sj5O9IZ-55">
          <mxGeometry x="39.559999999999945" y="100" width="120.89" height="40" as="geometry" />
        </mxCell>
        <mxCell id="FEQNbzJvbj0z5sj5O9IZ-90" value="Offers-API&lt;br&gt;&lt;div&gt;Proxy 1&lt;/div&gt;" style="rounded=1;whiteSpace=wrap;html=1;container=0;" vertex="1" parent="FEQNbzJvbj0z5sj5O9IZ-55">
          <mxGeometry x="39.559999999999945" y="160" width="120.89" height="40" as="geometry" />
        </mxCell>
        <mxCell id="FEQNbzJvbj0z5sj5O9IZ-56" value="API Portal" style="swimlane;whiteSpace=wrap;html=1;fillColor=#d5e8d4;strokeColor=#82b366;" vertex="1" parent="1">
          <mxGeometry x="560" y="610" width="200" height="120" as="geometry" />
        </mxCell>
        <mxCell id="FEQNbzJvbj0z5sj5O9IZ-91" value="Offers-API&lt;br&gt;Documentation" style="rounded=1;whiteSpace=wrap;html=1;container=0;" vertex="1" parent="FEQNbzJvbj0z5sj5O9IZ-56">
          <mxGeometry x="39.559999999999945" y="50" width="120.89" height="40" as="geometry" />
        </mxCell>
        <mxCell id="FEQNbzJvbj0z5sj5O9IZ-66" value="AWS" style="swimlane;whiteSpace=wrap;html=1;fillColor=#f5f5f5;fontColor=#333333;strokeColor=#666666;" vertex="1" parent="1">
          <mxGeometry x="1400" y="40" width="200" height="100" as="geometry" />
        </mxCell>
        <mxCell id="FEQNbzJvbj0z5sj5O9IZ-68" value="API Offers-API V1" style="rounded=1;whiteSpace=wrap;html=1;container=0;" vertex="1" parent="FEQNbzJvbj0z5sj5O9IZ-66">
          <mxGeometry x="39.559999999999945" y="40" width="120.89" height="40" as="geometry" />
        </mxCell>
        <mxCell id="FEQNbzJvbj0z5sj5O9IZ-69" value="Gitlab" style="swimlane;whiteSpace=wrap;html=1;container=0;fillColor=#ffe6cc;strokeColor=#d79b00;" vertex="1" parent="1">
          <mxGeometry x="880" y="40" width="440" height="460" as="geometry" />
        </mxCell>
        <mxCell id="FEQNbzJvbj0z5sj5O9IZ-70" value="&lt;span style=&quot;font-weight: 400;&quot;&gt;WCOFF&lt;/span&gt;" style="swimlane;whiteSpace=wrap;html=1;container=0;" vertex="1" parent="1">
          <mxGeometry x="900" y="80" width="400" height="400" as="geometry" />
        </mxCell>
        <mxCell id="FEQNbzJvbj0z5sj5O9IZ-111" value="V1" style="swimlane;whiteSpace=wrap;html=1;" vertex="1" parent="FEQNbzJvbj0z5sj5O9IZ-70">
          <mxGeometry x="20" y="40" width="200" height="340" as="geometry" />
        </mxCell>
        <mxCell id="FEQNbzJvbj0z5sj5O9IZ-72" value="Code source&lt;br&gt;API Offers-API V1" style="rounded=1;whiteSpace=wrap;html=1;container=0;" vertex="1" parent="FEQNbzJvbj0z5sj5O9IZ-111">
          <mxGeometry x="39.110000000000014" y="40" width="120.89" height="40" as="geometry" />
        </mxCell>
        <mxCell id="FEQNbzJvbj0z5sj5O9IZ-128" value="Offers-API V1&lt;br&gt;Proxy 1" style="rounded=1;whiteSpace=wrap;html=1;container=0;" vertex="1" parent="FEQNbzJvbj0z5sj5O9IZ-111">
          <mxGeometry x="39.110000000000014" y="100" width="120.89" height="40" as="geometry" />
        </mxCell>
        <mxCell id="FEQNbzJvbj0z5sj5O9IZ-129" value="Offers-API V1&lt;br&gt;Proxy 2" style="rounded=1;whiteSpace=wrap;html=1;container=0;" vertex="1" parent="FEQNbzJvbj0z5sj5O9IZ-111">
          <mxGeometry x="39.110000000000014" y="160" width="120.89" height="40" as="geometry" />
        </mxCell>
        <mxCell id="FEQNbzJvbj0z5sj5O9IZ-130" value="Offers-API V1&lt;br&gt;Proxy 3" style="rounded=1;whiteSpace=wrap;html=1;container=0;" vertex="1" parent="FEQNbzJvbj0z5sj5O9IZ-111">
          <mxGeometry x="39.110000000000014" y="220" width="120.89" height="40" as="geometry" />
        </mxCell>
        <mxCell id="FEQNbzJvbj0z5sj5O9IZ-131" value="Offers-API V1&lt;br&gt;Documentation" style="rounded=1;whiteSpace=wrap;html=1;container=0;" vertex="1" parent="FEQNbzJvbj0z5sj5O9IZ-111">
          <mxGeometry x="39.110000000000014" y="280" width="120.89" height="40" as="geometry" />
        </mxCell>
        <mxCell id="FEQNbzJvbj0z5sj5O9IZ-75" value="Pipeline&lt;br&gt;CI/CD" style="rounded=0;whiteSpace=wrap;html=1;" vertex="1" parent="FEQNbzJvbj0z5sj5O9IZ-70">
          <mxGeometry x="280" y="360" width="120" height="40" as="geometry" />
        </mxCell>
        <mxCell id="FEQNbzJvbj0z5sj5O9IZ-158" style="edgeStyle=orthogonalEdgeStyle;rounded=0;orthogonalLoop=1;jettySize=auto;html=1;" edge="1" parent="FEQNbzJvbj0z5sj5O9IZ-70" source="FEQNbzJvbj0z5sj5O9IZ-72" target="FEQNbzJvbj0z5sj5O9IZ-75">
          <mxGeometry relative="1" as="geometry" />
        </mxCell>
        <mxCell id="FEQNbzJvbj0z5sj5O9IZ-159" style="edgeStyle=orthogonalEdgeStyle;rounded=0;orthogonalLoop=1;jettySize=auto;html=1;entryX=0.5;entryY=0;entryDx=0;entryDy=0;" edge="1" parent="FEQNbzJvbj0z5sj5O9IZ-70" source="FEQNbzJvbj0z5sj5O9IZ-128" target="FEQNbzJvbj0z5sj5O9IZ-75">
          <mxGeometry relative="1" as="geometry" />
        </mxCell>
        <mxCell id="FEQNbzJvbj0z5sj5O9IZ-160" style="edgeStyle=orthogonalEdgeStyle;rounded=0;orthogonalLoop=1;jettySize=auto;html=1;entryX=0.5;entryY=0;entryDx=0;entryDy=0;" edge="1" parent="FEQNbzJvbj0z5sj5O9IZ-70" source="FEQNbzJvbj0z5sj5O9IZ-129" target="FEQNbzJvbj0z5sj5O9IZ-75">
          <mxGeometry relative="1" as="geometry" />
        </mxCell>
        <mxCell id="FEQNbzJvbj0z5sj5O9IZ-161" style="edgeStyle=orthogonalEdgeStyle;rounded=0;orthogonalLoop=1;jettySize=auto;html=1;entryX=0.5;entryY=0;entryDx=0;entryDy=0;" edge="1" parent="FEQNbzJvbj0z5sj5O9IZ-70" source="FEQNbzJvbj0z5sj5O9IZ-130" target="FEQNbzJvbj0z5sj5O9IZ-75">
          <mxGeometry relative="1" as="geometry" />
        </mxCell>
        <mxCell id="FEQNbzJvbj0z5sj5O9IZ-162" style="edgeStyle=orthogonalEdgeStyle;rounded=0;orthogonalLoop=1;jettySize=auto;html=1;entryX=0.5;entryY=0;entryDx=0;entryDy=0;" edge="1" parent="FEQNbzJvbj0z5sj5O9IZ-70" source="FEQNbzJvbj0z5sj5O9IZ-131" target="FEQNbzJvbj0z5sj5O9IZ-75">
          <mxGeometry relative="1" as="geometry" />
        </mxCell>
        <mxCell id="FEQNbzJvbj0z5sj5O9IZ-77" style="edgeStyle=orthogonalEdgeStyle;rounded=0;orthogonalLoop=1;jettySize=auto;html=1;entryX=0;entryY=0.5;entryDx=0;entryDy=0;" edge="1" parent="1" source="FEQNbzJvbj0z5sj5O9IZ-75" target="FEQNbzJvbj0z5sj5O9IZ-68">
          <mxGeometry relative="1" as="geometry" />
        </mxCell>
        <mxCell id="FEQNbzJvbj0z5sj5O9IZ-97" style="edgeStyle=orthogonalEdgeStyle;rounded=0;orthogonalLoop=1;jettySize=auto;html=1;entryX=0;entryY=0.5;entryDx=0;entryDy=0;" edge="1" parent="1" source="FEQNbzJvbj0z5sj5O9IZ-48" target="FEQNbzJvbj0z5sj5O9IZ-88">
          <mxGeometry relative="1" as="geometry" />
        </mxCell>
        <mxCell id="FEQNbzJvbj0z5sj5O9IZ-117" style="edgeStyle=orthogonalEdgeStyle;rounded=0;orthogonalLoop=1;jettySize=auto;html=1;entryX=0;entryY=0.5;entryDx=0;entryDy=0;" edge="1" parent="1" source="FEQNbzJvbj0z5sj5O9IZ-79" target="FEQNbzJvbj0z5sj5O9IZ-91">
          <mxGeometry relative="1" as="geometry" />
        </mxCell>
        <mxCell id="FEQNbzJvbj0z5sj5O9IZ-126" style="edgeStyle=orthogonalEdgeStyle;rounded=0;orthogonalLoop=1;jettySize=auto;html=1;" edge="1" parent="1" source="FEQNbzJvbj0z5sj5O9IZ-59" target="FEQNbzJvbj0z5sj5O9IZ-89">
          <mxGeometry relative="1" as="geometry" />
        </mxCell>
        <mxCell id="FEQNbzJvbj0z5sj5O9IZ-127" style="edgeStyle=orthogonalEdgeStyle;rounded=0;orthogonalLoop=1;jettySize=auto;html=1;entryX=0;entryY=0.5;entryDx=0;entryDy=0;" edge="1" parent="1" source="FEQNbzJvbj0z5sj5O9IZ-63" target="FEQNbzJvbj0z5sj5O9IZ-90">
          <mxGeometry relative="1" as="geometry" />
        </mxCell>
        <mxCell id="FEQNbzJvbj0z5sj5O9IZ-133" value="Apigee" style="swimlane;whiteSpace=wrap;html=1;fillColor=#f8cecc;strokeColor=#b85450;" vertex="1" parent="1">
          <mxGeometry x="1400" y="160" width="200" height="220" as="geometry" />
        </mxCell>
        <mxCell id="FEQNbzJvbj0z5sj5O9IZ-134" value="Offers-API-V1&lt;br&gt;Proxy 1" style="rounded=1;whiteSpace=wrap;html=1;container=0;" vertex="1" parent="FEQNbzJvbj0z5sj5O9IZ-133">
          <mxGeometry x="39.559999999999945" y="40" width="120.89" height="40" as="geometry" />
        </mxCell>
        <mxCell id="FEQNbzJvbj0z5sj5O9IZ-135" value="Offers-API-V1&lt;br&gt;&lt;div&gt;Proxy 2&lt;/div&gt;" style="rounded=1;whiteSpace=wrap;html=1;container=0;" vertex="1" parent="FEQNbzJvbj0z5sj5O9IZ-133">
          <mxGeometry x="39.559999999999945" y="100" width="120.89" height="40" as="geometry" />
        </mxCell>
        <mxCell id="FEQNbzJvbj0z5sj5O9IZ-136" value="Offers-API-V1&lt;br&gt;&lt;div&gt;Proxy 1&lt;/div&gt;" style="rounded=1;whiteSpace=wrap;html=1;container=0;" vertex="1" parent="FEQNbzJvbj0z5sj5O9IZ-133">
          <mxGeometry x="39.559999999999945" y="160" width="120.89" height="40" as="geometry" />
        </mxCell>
        <mxCell id="FEQNbzJvbj0z5sj5O9IZ-137" value="API Portal" style="swimlane;whiteSpace=wrap;html=1;fillColor=#d5e8d4;strokeColor=#82b366;" vertex="1" parent="1">
          <mxGeometry x="1400" y="400" width="200" height="100" as="geometry" />
        </mxCell>
        <mxCell id="FEQNbzJvbj0z5sj5O9IZ-138" value="Offers-API V1&lt;br&gt;Documentation" style="rounded=1;whiteSpace=wrap;html=1;container=0;" vertex="1" parent="FEQNbzJvbj0z5sj5O9IZ-137">
          <mxGeometry x="39.559999999999945" y="40" width="120.89" height="40" as="geometry" />
        </mxCell>
        <mxCell id="FEQNbzJvbj0z5sj5O9IZ-154" style="edgeStyle=orthogonalEdgeStyle;rounded=0;orthogonalLoop=1;jettySize=auto;html=1;" edge="1" parent="1" source="FEQNbzJvbj0z5sj5O9IZ-75" target="FEQNbzJvbj0z5sj5O9IZ-138">
          <mxGeometry relative="1" as="geometry" />
        </mxCell>
        <mxCell id="FEQNbzJvbj0z5sj5O9IZ-155" style="edgeStyle=orthogonalEdgeStyle;rounded=0;orthogonalLoop=1;jettySize=auto;html=1;entryX=0;entryY=0.5;entryDx=0;entryDy=0;" edge="1" parent="1" source="FEQNbzJvbj0z5sj5O9IZ-75" target="FEQNbzJvbj0z5sj5O9IZ-136">
          <mxGeometry relative="1" as="geometry" />
        </mxCell>
        <mxCell id="FEQNbzJvbj0z5sj5O9IZ-156" style="edgeStyle=orthogonalEdgeStyle;rounded=0;orthogonalLoop=1;jettySize=auto;html=1;entryX=0;entryY=0.5;entryDx=0;entryDy=0;" edge="1" parent="1" source="FEQNbzJvbj0z5sj5O9IZ-75" target="FEQNbzJvbj0z5sj5O9IZ-135">
          <mxGeometry relative="1" as="geometry" />
        </mxCell>
        <mxCell id="FEQNbzJvbj0z5sj5O9IZ-157" style="edgeStyle=orthogonalEdgeStyle;rounded=0;orthogonalLoop=1;jettySize=auto;html=1;entryX=0;entryY=0.5;entryDx=0;entryDy=0;" edge="1" parent="1" source="FEQNbzJvbj0z5sj5O9IZ-75" target="FEQNbzJvbj0z5sj5O9IZ-134">
          <mxGeometry relative="1" as="geometry" />
        </mxCell>
      </root>
    </mxGraphModel>
  </diagram>
  <diagram id="DvS8Mzi3IjFrtUhKw516" name="Page-3">
    <mxGraphModel dx="1273" dy="924" grid="1" gridSize="10" guides="1" tooltips="1" connect="1" arrows="1" fold="1" page="1" pageScale="1" pageWidth="827" pageHeight="1169" math="0" shadow="0">
      <root>
        <mxCell id="0" />
        <mxCell id="1" parent="0" />
        <mxCell id="zLPZG1y3GBXZqs8FTs6L-1" value="" style="endArrow=classic;html=1;rounded=0;entryX=0;entryY=0.587;entryDx=0;entryDy=0;entryPerimeter=0;" edge="1" parent="1" target="zLPZG1y3GBXZqs8FTs6L-47">
          <mxGeometry width="50" height="50" relative="1" as="geometry">
            <mxPoint x="40" y="200" as="sourcePoint" />
            <mxPoint x="720" y="199" as="targetPoint" />
          </mxGeometry>
        </mxCell>
        <mxCell id="zLPZG1y3GBXZqs8FTs6L-58" value="//" style="edgeLabel;html=1;align=center;verticalAlign=middle;resizable=0;points=[];" vertex="1" connectable="0" parent="zLPZG1y3GBXZqs8FTs6L-1">
          <mxGeometry x="-0.3814" y="3" relative="1" as="geometry">
            <mxPoint as="offset" />
          </mxGeometry>
        </mxCell>
        <mxCell id="zLPZG1y3GBXZqs8FTs6L-3" value="" style="endArrow=classic;html=1;rounded=0;entryX=0.054;entryY=0.658;entryDx=0;entryDy=0;entryPerimeter=0;" edge="1" parent="1" target="zLPZG1y3GBXZqs8FTs6L-54">
          <mxGeometry width="50" height="50" relative="1" as="geometry">
            <mxPoint x="40" y="200" as="sourcePoint" />
            <mxPoint x="720" y="920" as="targetPoint" />
            <Array as="points">
              <mxPoint x="80" y="200" />
              <mxPoint x="80" y="920" />
            </Array>
          </mxGeometry>
        </mxCell>
        <mxCell id="zLPZG1y3GBXZqs8FTs6L-8" style="edgeStyle=orthogonalEdgeStyle;rounded=0;orthogonalLoop=1;jettySize=auto;html=1;" edge="1" parent="1" source="zLPZG1y3GBXZqs8FTs6L-5">
          <mxGeometry relative="1" as="geometry">
            <mxPoint x="180" y="920" as="targetPoint" />
          </mxGeometry>
        </mxCell>
        <mxCell id="zLPZG1y3GBXZqs8FTs6L-5" value="ci-before-script" style="rounded=1;whiteSpace=wrap;html=1;" vertex="1" parent="1">
          <mxGeometry x="120" y="840" width="120" height="40" as="geometry" />
        </mxCell>
        <mxCell id="zLPZG1y3GBXZqs8FTs6L-7" style="edgeStyle=orthogonalEdgeStyle;rounded=0;orthogonalLoop=1;jettySize=auto;html=1;" edge="1" parent="1" source="zLPZG1y3GBXZqs8FTs6L-6">
          <mxGeometry relative="1" as="geometry">
            <mxPoint x="180" y="200" as="targetPoint" />
          </mxGeometry>
        </mxCell>
        <mxCell id="zLPZG1y3GBXZqs8FTs6L-6" value="Accor-customlint" style="rounded=1;whiteSpace=wrap;html=1;" vertex="1" parent="1">
          <mxGeometry x="120" y="120" width="120" height="40" as="geometry" />
        </mxCell>
        <mxCell id="zLPZG1y3GBXZqs8FTs6L-12" style="edgeStyle=orthogonalEdgeStyle;rounded=0;orthogonalLoop=1;jettySize=auto;html=1;" edge="1" parent="1" source="zLPZG1y3GBXZqs8FTs6L-9">
          <mxGeometry relative="1" as="geometry">
            <mxPoint x="340" y="920" as="targetPoint" />
          </mxGeometry>
        </mxCell>
        <mxCell id="zLPZG1y3GBXZqs8FTs6L-9" value="swagger-linter-custom" style="rounded=1;whiteSpace=wrap;html=1;fontSize=11;" vertex="1" parent="1">
          <mxGeometry x="280" y="840" width="120" height="40" as="geometry" />
        </mxCell>
        <mxCell id="zLPZG1y3GBXZqs8FTs6L-10" value="ci-openapi-diff" style="rounded=1;whiteSpace=wrap;html=1;" vertex="1" parent="1">
          <mxGeometry x="280" y="800" width="120" height="40" as="geometry" />
        </mxCell>
        <mxCell id="zLPZG1y3GBXZqs8FTs6L-11" value="ci-changelog-genai" style="rounded=1;whiteSpace=wrap;html=1;dashed=1;" vertex="1" parent="1">
          <mxGeometry x="280" y="760" width="120" height="40" as="geometry" />
        </mxCell>
        <mxCell id="zLPZG1y3GBXZqs8FTs6L-15" style="edgeStyle=orthogonalEdgeStyle;rounded=0;orthogonalLoop=1;jettySize=auto;html=1;" edge="1" parent="1" source="zLPZG1y3GBXZqs8FTs6L-13">
          <mxGeometry relative="1" as="geometry">
            <mxPoint x="500" y="920" as="targetPoint" />
          </mxGeometry>
        </mxCell>
        <mxCell id="zLPZG1y3GBXZqs8FTs6L-13" value="ci-update-script" style="rounded=1;whiteSpace=wrap;html=1;" vertex="1" parent="1">
          <mxGeometry x="440" y="840" width="120" height="40" as="geometry" />
        </mxCell>
        <mxCell id="zLPZG1y3GBXZqs8FTs6L-14" value="ci-create-script" style="rounded=1;whiteSpace=wrap;html=1;" vertex="1" parent="1">
          <mxGeometry x="440" y="800" width="120" height="40" as="geometry" />
        </mxCell>
        <mxCell id="zLPZG1y3GBXZqs8FTs6L-17" style="edgeStyle=orthogonalEdgeStyle;rounded=0;orthogonalLoop=1;jettySize=auto;html=1;" edge="1" parent="1" source="zLPZG1y3GBXZqs8FTs6L-16">
          <mxGeometry relative="1" as="geometry">
            <mxPoint x="660" y="920" as="targetPoint" />
          </mxGeometry>
        </mxCell>
        <mxCell id="zLPZG1y3GBXZqs8FTs6L-16" value="ci-auto-sync-api" style="rounded=1;whiteSpace=wrap;html=1;" vertex="1" parent="1">
          <mxGeometry x="600" y="840" width="120" height="40" as="geometry" />
        </mxCell>
        <mxCell id="zLPZG1y3GBXZqs8FTs6L-26" style="edgeStyle=orthogonalEdgeStyle;rounded=0;orthogonalLoop=1;jettySize=auto;html=1;" edge="1" parent="1" source="zLPZG1y3GBXZqs8FTs6L-19">
          <mxGeometry relative="1" as="geometry">
            <mxPoint x="340" y="200" as="targetPoint" />
          </mxGeometry>
        </mxCell>
        <mxCell id="zLPZG1y3GBXZqs8FTs6L-19" value="rec-deploy-ipwhitelist" style="rounded=1;whiteSpace=wrap;html=1;" vertex="1" parent="1">
          <mxGeometry x="280" y="120" width="120" height="40" as="geometry" />
        </mxCell>
        <mxCell id="zLPZG1y3GBXZqs8FTs6L-20" value="rec-deploy-proxy&lt;span style=&quot;white-space: pre;&quot;&gt;&#x9;&lt;/span&gt;" style="rounded=1;whiteSpace=wrap;html=1;" vertex="1" parent="1">
          <mxGeometry x="280" y="40" width="120" height="40" as="geometry" />
        </mxCell>
        <mxCell id="zLPZG1y3GBXZqs8FTs6L-21" value="rec-deploy-kvm" style="rounded=1;whiteSpace=wrap;html=1;" vertex="1" parent="1">
          <mxGeometry x="280" y="80" width="120" height="40" as="geometry" />
        </mxCell>
        <mxCell id="zLPZG1y3GBXZqs8FTs6L-27" style="edgeStyle=orthogonalEdgeStyle;rounded=0;orthogonalLoop=1;jettySize=auto;html=1;" edge="1" parent="1" source="zLPZG1y3GBXZqs8FTs6L-22">
          <mxGeometry relative="1" as="geometry">
            <mxPoint x="500" y="200" as="targetPoint" />
          </mxGeometry>
        </mxCell>
        <mxCell id="zLPZG1y3GBXZqs8FTs6L-22" value="&lt;font style=&quot;font-size: 11px;&quot;&gt;rec-rollback-ipwhitelist&lt;/font&gt;" style="rounded=1;whiteSpace=wrap;html=1;" vertex="1" parent="1">
          <mxGeometry x="440" y="120" width="120" height="40" as="geometry" />
        </mxCell>
        <mxCell id="zLPZG1y3GBXZqs8FTs6L-23" value="rec-rollback-kvm" style="rounded=1;whiteSpace=wrap;html=1;" vertex="1" parent="1">
          <mxGeometry x="440" y="80" width="120" height="40" as="geometry" />
        </mxCell>
        <mxCell id="zLPZG1y3GBXZqs8FTs6L-24" value="rec-rollback-proxy" style="rounded=1;whiteSpace=wrap;html=1;" vertex="1" parent="1">
          <mxGeometry x="440" y="40" width="120" height="40" as="geometry" />
        </mxCell>
        <mxCell id="zLPZG1y3GBXZqs8FTs6L-50" style="edgeStyle=orthogonalEdgeStyle;rounded=0;orthogonalLoop=1;jettySize=auto;html=1;" edge="1" parent="1" source="zLPZG1y3GBXZqs8FTs6L-30">
          <mxGeometry relative="1" as="geometry">
            <mxPoint x="340" y="440" as="targetPoint" />
          </mxGeometry>
        </mxCell>
        <mxCell id="zLPZG1y3GBXZqs8FTs6L-30" value="&lt;font style=&quot;font-size: 10px;&quot;&gt;preprod-deploy-ipwhitelist&lt;/font&gt;" style="rounded=1;whiteSpace=wrap;html=1;" vertex="1" parent="1">
          <mxGeometry x="280" y="360" width="120" height="40" as="geometry" />
        </mxCell>
        <mxCell id="zLPZG1y3GBXZqs8FTs6L-31" value="preprod-deploy-proxy" style="rounded=1;whiteSpace=wrap;html=1;" vertex="1" parent="1">
          <mxGeometry x="280" y="280" width="120" height="40" as="geometry" />
        </mxCell>
        <mxCell id="zLPZG1y3GBXZqs8FTs6L-32" value="preprod-deploy-kvm" style="rounded=1;whiteSpace=wrap;html=1;" vertex="1" parent="1">
          <mxGeometry x="280" y="320" width="120" height="40" as="geometry" />
        </mxCell>
        <mxCell id="zLPZG1y3GBXZqs8FTs6L-51" style="edgeStyle=orthogonalEdgeStyle;rounded=0;orthogonalLoop=1;jettySize=auto;html=1;" edge="1" parent="1" source="zLPZG1y3GBXZqs8FTs6L-33">
          <mxGeometry relative="1" as="geometry">
            <mxPoint x="500" y="440" as="targetPoint" />
          </mxGeometry>
        </mxCell>
        <mxCell id="zLPZG1y3GBXZqs8FTs6L-33" value="&lt;font style=&quot;font-size: 9px;&quot;&gt;preprod-rollback-ipwhitelist&lt;/font&gt;" style="rounded=1;whiteSpace=wrap;html=1;" vertex="1" parent="1">
          <mxGeometry x="440" y="360" width="120" height="40" as="geometry" />
        </mxCell>
        <mxCell id="zLPZG1y3GBXZqs8FTs6L-34" value="preprod-rollback-kvm" style="rounded=1;whiteSpace=wrap;html=1;" vertex="1" parent="1">
          <mxGeometry x="440" y="320" width="120" height="40" as="geometry" />
        </mxCell>
        <mxCell id="zLPZG1y3GBXZqs8FTs6L-35" value="&lt;font style=&quot;font-size: 11px;&quot;&gt;preprod-rollback-proxy&lt;/font&gt;" style="rounded=1;whiteSpace=wrap;html=1;" vertex="1" parent="1">
          <mxGeometry x="440" y="280" width="120" height="40" as="geometry" />
        </mxCell>
        <mxCell id="zLPZG1y3GBXZqs8FTs6L-52" style="edgeStyle=orthogonalEdgeStyle;rounded=0;orthogonalLoop=1;jettySize=auto;html=1;" edge="1" parent="1" source="zLPZG1y3GBXZqs8FTs6L-38">
          <mxGeometry relative="1" as="geometry">
            <mxPoint x="340" y="680" as="targetPoint" />
          </mxGeometry>
        </mxCell>
        <mxCell id="zLPZG1y3GBXZqs8FTs6L-38" value="&lt;font style=&quot;font-size: 11px;&quot;&gt;prod-deploy-ipwhitelist&lt;/font&gt;" style="rounded=1;whiteSpace=wrap;html=1;" vertex="1" parent="1">
          <mxGeometry x="280" y="600" width="120" height="40" as="geometry" />
        </mxCell>
        <mxCell id="zLPZG1y3GBXZqs8FTs6L-39" value="prod-deploy-proxy" style="rounded=1;whiteSpace=wrap;html=1;" vertex="1" parent="1">
          <mxGeometry x="280" y="520" width="120" height="40" as="geometry" />
        </mxCell>
        <mxCell id="zLPZG1y3GBXZqs8FTs6L-40" value="prod-deploy-kvm" style="rounded=1;whiteSpace=wrap;html=1;" vertex="1" parent="1">
          <mxGeometry x="280" y="560" width="120" height="40" as="geometry" />
        </mxCell>
        <mxCell id="zLPZG1y3GBXZqs8FTs6L-53" style="edgeStyle=orthogonalEdgeStyle;rounded=0;orthogonalLoop=1;jettySize=auto;html=1;" edge="1" parent="1" source="zLPZG1y3GBXZqs8FTs6L-41">
          <mxGeometry relative="1" as="geometry">
            <mxPoint x="500" y="680" as="targetPoint" />
          </mxGeometry>
        </mxCell>
        <mxCell id="zLPZG1y3GBXZqs8FTs6L-41" value="&lt;font style=&quot;font-size: 11px;&quot;&gt;prod-rollback-ipwhitelist&lt;/font&gt;" style="rounded=1;whiteSpace=wrap;html=1;" vertex="1" parent="1">
          <mxGeometry x="440" y="600" width="120" height="40" as="geometry" />
        </mxCell>
        <mxCell id="zLPZG1y3GBXZqs8FTs6L-42" value="prod-rollback-kvm" style="rounded=1;whiteSpace=wrap;html=1;" vertex="1" parent="1">
          <mxGeometry x="440" y="560" width="120" height="40" as="geometry" />
        </mxCell>
        <mxCell id="zLPZG1y3GBXZqs8FTs6L-43" value="prod-rollback-proxy" style="rounded=1;whiteSpace=wrap;html=1;" vertex="1" parent="1">
          <mxGeometry x="440" y="520" width="120" height="40" as="geometry" />
        </mxCell>
        <mxCell id="zLPZG1y3GBXZqs8FTs6L-45" value="" style="endArrow=classic;html=1;rounded=0;entryX=0.031;entryY=0.619;entryDx=0;entryDy=0;entryPerimeter=0;" edge="1" parent="1" target="zLPZG1y3GBXZqs8FTs6L-48">
          <mxGeometry width="50" height="50" relative="1" as="geometry">
            <mxPoint x="80" y="440" as="sourcePoint" />
            <mxPoint x="720" y="440" as="targetPoint" />
          </mxGeometry>
        </mxCell>
        <mxCell id="zLPZG1y3GBXZqs8FTs6L-46" value="" style="endArrow=classic;html=1;rounded=0;entryX=0;entryY=0.619;entryDx=0;entryDy=0;entryPerimeter=0;" edge="1" parent="1" target="zLPZG1y3GBXZqs8FTs6L-49">
          <mxGeometry width="50" height="50" relative="1" as="geometry">
            <mxPoint x="80" y="680" as="sourcePoint" />
            <mxPoint x="720" y="680" as="targetPoint" />
          </mxGeometry>
        </mxCell>
        <mxCell id="zLPZG1y3GBXZqs8FTs6L-47" value="APIGEE&lt;br&gt;REC" style="text;html=1;align=center;verticalAlign=middle;resizable=0;points=[];autosize=1;strokeColor=none;fillColor=none;" vertex="1" parent="1">
          <mxGeometry x="757" y="175" width="70" height="40" as="geometry" />
        </mxCell>
        <mxCell id="zLPZG1y3GBXZqs8FTs6L-48" value="APIGEE&lt;br&gt;PREPROD" style="text;html=1;align=center;verticalAlign=middle;resizable=0;points=[];autosize=1;strokeColor=none;fillColor=none;" vertex="1" parent="1">
          <mxGeometry x="757" y="415" width="80" height="40" as="geometry" />
        </mxCell>
        <mxCell id="zLPZG1y3GBXZqs8FTs6L-49" value="APIGEE&lt;br&gt;PROD" style="text;html=1;align=center;verticalAlign=middle;resizable=0;points=[];autosize=1;strokeColor=none;fillColor=none;" vertex="1" parent="1">
          <mxGeometry x="762" y="655" width="70" height="40" as="geometry" />
        </mxCell>
        <mxCell id="zLPZG1y3GBXZqs8FTs6L-54" value="PORTAIL" style="text;html=1;align=center;verticalAlign=middle;resizable=0;points=[];autosize=1;strokeColor=none;fillColor=none;" vertex="1" parent="1">
          <mxGeometry x="767" y="900" width="70" height="30" as="geometry" />
        </mxCell>
        <mxCell id="zLPZG1y3GBXZqs8FTs6L-56" value="MR to DEV BRANCH" style="text;html=1;align=center;verticalAlign=middle;resizable=0;points=[];autosize=1;strokeColor=none;fillColor=none;" vertex="1" parent="1">
          <mxGeometry x="110" y="50" width="140" height="30" as="geometry" />
        </mxCell>
        <mxCell id="zLPZG1y3GBXZqs8FTs6L-57" value="Apigeelint" style="rounded=1;whiteSpace=wrap;html=1;" vertex="1" parent="1">
          <mxGeometry x="120" y="80" width="120" height="40" as="geometry" />
        </mxCell>
        <mxCell id="zLPZG1y3GBXZqs8FTs6L-66" value="&lt;ol style=&quot;box-sizing: border-box; --tw-border-spacing-x: 0; --tw-border-spacing-y: 0; --tw-translate-x: 0; --tw-translate-y: 0; --tw-rotate: 0; --tw-skew-x: 0; --tw-skew-y: 0; --tw-scale-x: 1; --tw-scale-y: 1; --tw-pan-x: ; --tw-pan-y: ; --tw-pinch-zoom: ; --tw-scroll-snap-strictness: proximity; --tw-gradient-from-position: ; --tw-gradient-via-position: ; --tw-gradient-to-position: ; --tw-ordinal: ; --tw-slashed-zero: ; --tw-numeric-figure: ; --tw-numeric-spacing: ; --tw-numeric-fraction: ; --tw-ring-offset-shadow: 0 0 #0000; --tw-ring-shadow: 0 0 #0000; --tw-shadow: 0 0 #0000; --tw-shadow-colored: 0 0 #0000; --tw-blur: ; --tw-brightness: ; --tw-contrast: ; --tw-grayscale: ; --tw-hue-rotate: ; --tw-invert: ; --tw-saturate: ; --tw-sepia: ; --tw-drop-shadow: ; --tw-backdrop-blur: ; --tw-backdrop-brightness: ; --tw-backdrop-contrast: ; --tw-backdrop-grayscale: ; --tw-backdrop-hue-rotate: ; --tw-backdrop-invert: ; --tw-backdrop-opacity: ; --tw-backdrop-saturate: ; --tw-backdrop-sepia: ; font-variant-ligatures: none; margin: 0px; display: flex; flex-wrap: nowrap; padding: 0px; list-style: none; background-color: rgb(255, 255, 255); border-radius: 0.25rem; align-items: center; line-height: 1rem; max-width: 100%; color: rgb(58, 56, 63); font-family: &amp;quot;GitLab Sans&amp;quot;, -apple-system, &amp;quot;system-ui&amp;quot;, &amp;quot;Segoe UI&amp;quot;, Roboto, &amp;quot;Noto Sans&amp;quot;, Ubuntu, Cantarell, &amp;quot;Helvetica Neue&amp;quot;, sans-serif, &amp;quot;Apple Color Emoji&amp;quot;, &amp;quot;Segoe UI Emoji&amp;quot;, &amp;quot;Segoe UI Symbol&amp;quot;, &amp;quot;Noto Color Emoji&amp;quot;; font-size: 14px; text-align: left; text-wrap-mode: wrap;&quot; class=&quot;gl-breadcrumb-list breadcrumb&quot;&gt;&lt;li style=&quot;box-sizing: border-box; --tw-border-spacing-x: 0; --tw-border-spacing-y: 0; --tw-translate-x: 0; --tw-translate-y: 0; --tw-rotate: 0; --tw-skew-x: 0; --tw-skew-y: 0; --tw-scale-x: 1; --tw-scale-y: 1; --tw-pan-x: ; --tw-pan-y: ; --tw-pinch-zoom: ; --tw-scroll-snap-strictness: proximity; --tw-gradient-from-position: ; --tw-gradient-via-position: ; --tw-gradient-to-position: ; --tw-ordinal: ; --tw-slashed-zero: ; --tw-numeric-figure: ; --tw-numeric-spacing: ; --tw-numeric-fraction: ; --tw-ring-offset-shadow: 0 0 #0000; --tw-ring-shadow: 0 0 #0000; --tw-shadow: 0 0 #0000; --tw-shadow-colored: 0 0 #0000; --tw-blur: ; --tw-brightness: ; --tw-contrast: ; --tw-grayscale: ; --tw-hue-rotate: ; --tw-invert: ; --tw-saturate: ; --tw-sepia: ; --tw-drop-shadow: ; --tw-backdrop-blur: ; --tw-backdrop-brightness: ; --tw-backdrop-contrast: ; --tw-backdrop-grayscale: ; --tw-backdrop-hue-rotate: ; --tw-backdrop-invert: ; --tw-backdrop-opacity: ; --tw-backdrop-saturate: ; --tw-backdrop-sepia: ; line-height: 1rem; flex-shrink: 0; font-size: 0.75rem;&quot; class=&quot;gl-breadcrumb-item gl-breadcrumb-item-sm&quot;&gt;&lt;a style=&quot;box-sizing: border-box; --tw-border-spacing-x: 0; --tw-border-spacing-y: 0; --tw-translate-x: 0; --tw-translate-y: 0; --tw-rotate: 0; --tw-skew-x: 0; --tw-skew-y: 0; --tw-scale-x: 1; --tw-scale-y: 1; --tw-pan-x: ; --tw-pan-y: ; --tw-pinch-zoom: ; --tw-scroll-snap-strictness: proximity; --tw-gradient-from-position: ; --tw-gradient-via-position: ; --tw-gradient-to-position: ; --tw-ordinal: ; --tw-slashed-zero: ; --tw-numeric-figure: ; --tw-numeric-spacing: ; --tw-numeric-fraction: ; --tw-ring-offset-shadow: 0 0 #0000; --tw-ring-shadow: 0 0 #0000; --tw-shadow: 0 0 #0000; --tw-shadow-colored: 0 0 #0000; --tw-blur: ; --tw-brightness: ; --tw-contrast: ; --tw-grayscale: ; --tw-hue-rotate: ; --tw-invert: ; --tw-saturate: ; --tw-sepia: ; --tw-drop-shadow: ; --tw-backdrop-blur: ; --tw-backdrop-brightness: ; --tw-backdrop-contrast: ; --tw-backdrop-grayscale: ; --tw-backdrop-hue-rotate: ; --tw-backdrop-invert: ; --tw-backdrop-opacity: ; --tw-backdrop-saturate: ; --tw-backdrop-sepia: ; color: rgb(98, 97, 104); text-decoration-style: solid; text-decoration-color: currentcolor; display: inline-block; border-radius: 0.25rem; transition: box-shadow 0.2s cubic-bezier(0.22, 0.61, 0.36, 1), text-decoration-color 0.2s cubic-bezier(0.22, 0.61, 0.36, 1); box-shadow: rgb(255, 255, 255) 0px 0px 0px 1px, rgb(31, 117, 203) 0px 0px 0px 3px; outline: none;&quot; class=&quot;&quot; href=&quot;https://gitlab.softfactory-accor.net/rbac/cd/welcome-connect/wcboo/apigee/OPEN_DIST_WCBNO_BASKET_DARK_CANARY_v1/-/pipelines&quot;&gt;&lt;span style=&quot;box-sizing: border-box; --tw-border-spacing-x: 0; --tw-border-spacing-y: 0; --tw-translate-x: 0; --tw-translate-y: 0; --tw-rotate: 0; --tw-skew-x: 0; --tw-skew-y: 0; --tw-scale-x: 1; --tw-scale-y: 1; --tw-pan-x: ; --tw-pan-y: ; --tw-pinch-zoom: ; --tw-scroll-snap-strictness: proximity; --tw-gradient-from-position: ; --tw-gradient-via-position: ; --tw-gradient-to-position: ; --tw-ordinal: ; --tw-slashed-zero: ; --tw-numeric-figure: ; --tw-numeric-spacing: ; --tw-numeric-fraction: ; --tw-ring-offset-shadow: 0 0 #0000; --tw-ring-shadow: 0 0 #0000; --tw-shadow: 0 0 #0000; --tw-shadow-colored: 0 0 #0000; --tw-blur: ; --tw-brightness: ; --tw-contrast: ; --tw-grayscale: ; --tw-hue-rotate: ; --tw-invert: ; --tw-saturate: ; --tw-sepia: ; --tw-drop-shadow: ; --tw-backdrop-blur: ; --tw-backdrop-brightness: ; --tw-backdrop-contrast: ; --tw-backdrop-grayscale: ; --tw-backdrop-hue-rotate: ; --tw-backdrop-invert: ; --tw-backdrop-opacity: ; --tw-backdrop-saturate: ; --tw-backdrop-sepia: ; vertical-align: middle;&quot; class=&quot;gl-align-middle&quot;&gt;Pipelines&lt;/span&gt;&lt;/a&gt;&lt;/li&gt;&lt;/ol&gt;" style="text;html=1;align=center;verticalAlign=middle;resizable=0;points=[];autosize=1;strokeColor=none;fillColor=none;" vertex="1" parent="1">
          <mxGeometry x="30" y="10" width="70" height="30" as="geometry" />
        </mxCell>
      </root>
    </mxGraphModel>
  </diagram>
</mxfile>
